<svg xmlns="http://www.w3.org/2000/svg" width="144" height="144"><path d="M141.846 89.417c-9.62 38.57-48.69 62.046-87.27 52.428C16.012 132.228-7.466 93.16 2.156 54.59 11.772 16.017 50.844-7.46 89.41 2.156c38.575 9.617 62.052 48.688 52.436 87.262z" fill="#f7931a"/><path d="M103.736 61.743c1.433-9.582-5.863-14.73-15.838-18.167l3.235-12.978-7.9-1.97-3.15 12.637a322.75 322.75 0 0 0-6.33-1.49l3.17-12.72-7.894-1.968-3.24 12.976a262.43 262.43 0 0 1-5.05-1.186l.01-.04-10.894-2.72-2.103 8.437s5.86 1.343 5.737 1.427c3.2.8 3.78 2.92 3.68 4.6l-3.68 14.78c.22.057.505.136.82.264-.263-.066-.544-.137-.833-.207l-5.166 20.71c-.39.972-1.38 2.43-3.62 1.877.08.114-5.74-1.433-5.74-1.433l-3.92 9.046 10.28 2.563c1.91.48 3.787.98 5.63 1.452l-3.267 13.127 7.89 1.97 3.24-12.99a313.73 313.73 0 0 0 6.298 1.633L61.875 114.3l7.9 1.97 3.27-13.103c13.473 2.548 23.604 1.52 27.866-10.663 3.437-9.81-.17-15.466-7.258-19.16 5.16-1.19 9.05-4.583 10.088-11.595zm-18.05 25.31c-2.443 9.812-18.96 4.508-24.317 3.177l4.333-17.39c5.355 1.336 22.53 3.982 19.98 14.214zm2.44-25.45C85.9 70.526 72.152 65.99 67.692 64.88l3.932-15.774c4.46 1.112 18.824 3.187 16.503 12.495z" fill="#fff"/></svg>