<svg xmlns="http://www.w3.org/2000/svg" width="589" height="589" viewBox="126.444 2.281 589 589"><circle cx="420.944" cy="296.781" r="294.5" fill="#2daae1"/><path d="M609.773 179.634c-13.89 6.164-28.81 10.33-44.498 12.204 16.01-9.587 28.275-24.78 34.066-42.86a154.78 154.78 0 0 1-49.205 18.8c-14.125-15.055-34.267-24.455-56.55-24.455-42.774 0-77.463 34.675-77.463 77.473 0 6.064.683 11.98 1.996 17.66-64.39-3.236-121.474-34.08-159.684-80.945-6.67 11.45-10.49 24.758-10.49 38.957 0 26.875 13.68 50.587 34.465 64.477a77.122 77.122 0 0 1-35.098-9.685v.98c0 37.54 26.7 68.84 62.145 75.96-6.51 1.783-13.344 2.715-20.413 2.715-5 0-9.848-.472-14.585-1.363 9.86 30.77 38.47 53.167 72.362 53.8-26.515 20.785-59.925 33.175-96.212 33.175-6.25 0-12.427-.372-18.49-1.103 34.29 21.99 75.005 34.825 118.758 34.825 142.496 0 220.428-118.05 220.428-220.428 0-3.36-.074-6.697-.236-10.02a157.855 157.855 0 0 0 38.707-40.16z" fill="#FFF"/></svg>